<svg class="icon" viewBox="0 0 1024 1024" xmlns="http://www.w3.org/2000/svg" width="128" height="128"><defs><style/></defs><path d="M799.836 409.344c-7.125 0-17.457 1.126-26.721 0-51.567 15.006-88.17 59.043-106.883 106.75-23.42-29.153-62.5-52.286-106.884-53.375-5.526 1.088-15.553 2.187-26.72 0-75.84 22.04-132.216 117.156-120.244 200.153C444.87 840.605 772.147 897.242 773.115 916.4c-.968 15.082 15.32-79.065 66.802-160.122 51.227-80.34 121.282-110.283 106.884-226.842-13.124-72.212-76.882-120.089-146.965-120.092zM345.582 903.057c-.07 0-.16-.097-.242-.152-.114.1-.048.152.242.152z"/><path d="M733.033 129.129c-115.274-8.884-205.74 94.891-253.848 173.467-28.198-65.91-108.804-148.776-173.686-146.78-111.03-.482-231.31 76.28-240.487 213.498-10.657 196.369 125.677 241.141 200.407 360.277 49.86 75.175 75.202 170.11 79.921 173.314 1.494-1.317 37.99-12.055 120.485-53.222-58.424-36.85-103.333-92.575-120.243-160.123-15.33-119.972 42.422-261.348 146.965-280.216 27.204-11.226 95.87-34.045 160.325 26.687 29.96-66.276 71.679-82.143 120.244-93.406 9.818-1.951 23.158-3.786 40.08 0 53.01-3.783 105.28 18.952 146.966 53.375-2.736-9.132-1.048-20.483 0-26.687 7.275-149.553-88.769-228.409-227.129-240.184z"/></svg>