<svg xmlns="http://www.w3.org/2000/svg" width="64" height="64"><path d="M54 25.262v11.476a1.998 1.998 0 0 1-1.129 1.82h-.062c-.496.266-.86.727-1 1.27L48.12 53.54a2.04 2.04 0 0 1-.441.813l-7.078 8c-.383.425-.93.671-1.5.668H24.898a2.005 2.005 0 0 1-1.5-.668l-7.078-8a2.04 2.04 0 0 1-.441-.813l-.508-1.91-1.262-4.738-.847-3.153-1-3.867v-.07a1.915 1.915 0 0 0-1-1.2h-.063A2 2 0 0 1 10 36.739V25.262a1.998 1.998 0 0 1 1.129-1.82c.562-.29.953-.82 1.062-1.442l1.887-9.46A9.29 9.29 0 0 1 19.23 6l.848-.398a27.99 27.99 0 0 1 23.844 0L44.77 6a9.296 9.296 0 0 1 5.152 6.57l.75 3.75.668 3.328.469 2.352a2.003 2.003 0 0 0 1.062 1.398A2.003 2.003 0 0 1 54 25.262z"/><path d="M14.05 15.89l2.302 14.27S24.18 33.07 27 33c2.82-.07 14.781 1.36 21.29-3.719l2.07-14.722L43.3 8l-21.66-.488z"/><path d="M50.36 14.531s-5.419-2.472-8.848-3.75c-1.57-.59-2.723-.93-2.75-.672-.032.262-.121 1.832-.352 3.77C38 17.699 37 23 35 23h-7s-.41.7-1.172-3.578v-.063c-.2-1.12-.387-2.27-.547-3.37-.27-1.708-.48-3.29-.633-4.368-.117-.91-.187-1.473-.187-1.473l-2.313.07L13.59 15l.262-1.41S14.09 4 32 3a28.09 28.09 0 0 1 2.398-.059 25.944 25.944 0 0 1 4.602.38c1.07.19 2.117.48 3.129.87 1.39.504 2.687 1.23 3.84 2.16a11.98 11.98 0 0 1 4.39 8.18zM12.23 39.871l7.73 8.848.33 4.332 1.812 1.289 3.218-3.43 13.559.13 3.02 3.679 2.21-2 .32-5.16 7.34-7.688-2.69 9.688-.79 4.582L39.531 63H23.97L16 53.852z"/><path d="M40 63H24v-3c0-1.105.895-2 2-2h12c1.105 0 2 .895 2 2z"/><path d="M47 31l1 1.43c.59.883.387 2.07-.46 2.71l-1.47 1.06c-.691.519-1.535.8-2.398.8h-5.434a2 2 0 0 1-1.789-1.11L35 33M16.29 31l-1 1.43c-.59.883-.388 2.07.46 2.71l1.422 1.06c.691.519 1.531.8 2.398.8H25c.758 0 1.453-.43 1.79-1.11l1.5-2.89"/><path d="M53.32 22.54a.991.991 0 0 1-.53-.7l-1.892-9.461A10.303 10.303 0 0 0 45.2 5.102l-.847-.403a28.91 28.91 0 0 0-24.704 0l-.847.403a10.303 10.303 0 0 0-5.7 7.277l-1.89 9.46a.991.991 0 0 1-.531.7A3.001 3.001 0 0 0 9 25.262v11.476a2.999 2.999 0 0 0 1.75 2.75c.258.13.445.364.52.64l3.64 13.673c.125.445.352.855.66 1.199l7.09 8c.57.637 1.387 1 2.238 1h14.204c.851 0 1.668-.363 2.238-1l7.09-8c.312-.348.539-.766.66-1.219l3.648-13.672a1 1 0 0 1 .59-.668A3.001 3.001 0 0 0 55 36.738V25.262a3.001 3.001 0 0 0-1.68-2.723zM46.48 32l.641 1c.29.441.191 1.031-.23 1.352l-1.422 1.046c-.52.391-1.149.602-1.797.602h-5.434a.994.994 0 0 1-.886-.55l-.84-1.68A55.027 55.027 0 0 0 46.48 32zm.11-2.45a.591.591 0 0 1-.418.47 52.97 52.97 0 0 1-28.32 0 .586.586 0 0 1-.422-.461L15.21 16a10.373 10.373 0 0 1 3.59-2.852A30.722 30.722 0 0 1 24.673 11l1.137 10.281a2.999 2.999 0 0 0 3 2.668h6.421a2.996 2.996 0 0 0 3-2.668L39.32 11a31.018 31.018 0 0 1 5.871 2.07 10.371 10.371 0 0 1 3.598 2.828zM16.172 33L17 31.809c.117.062.234.117.36.16a54.654 54.654 0 0 0 9.511 1.75L26 35.449a.996.996 0 0 1-.89.551H19.62c-.648 0-1.281-.21-1.8-.602l-1.423-1.07A.998.998 0 0 1 16.172 33zm3.476-26.078l.852-.402a26.91 26.91 0 0 1 23 0l.852.402a8.297 8.297 0 0 1 4.59 5.86l.109.546a12.373 12.373 0 0 0-3-2 33.074 33.074 0 0 0-6.25-2.2 1.993 1.993 0 0 0-1.602.313 1.995 1.995 0 0 0-.847 1.43L36.199 21.11a1 1 0 0 1-1 .891h-6.41a1.003 1.003 0 0 1-1-.89L26.66 10.827a2.002 2.002 0 0 0-.851-1.43 2 2 0 0 0-1.598-.308 33.258 33.258 0 0 0-6.27 2.2 12.298 12.298 0 0 0-3 2l.11-.552a8.282 8.282 0 0 1 4.597-5.816zm27.5 46.367a.973.973 0 0 1-.218.41l-7.09 8a.996.996 0 0 1-.75.34H24.898c-.285 0-.558-.125-.75-.34l-7.09-8a1.018 1.018 0 0 1-.218-.41l-2.79-10.48 4.188 4.71c.492.551.762 1.262.762 2v2.653c0 .793.316 1.555.879 2.117l.601.602a2.001 2.001 0 0 0 3-.211l1.72-2.282c.19-.25.484-.398.8-.398h12c.316 0 .61.148.8.398l1.712 2.282c.347.46.879.75 1.457.789h.14c.532 0 1.04-.215 1.41-.59l.602-.598c.559-.562.875-1.32.879-2.11V49.52c0-.739.27-1.45.762-2l4.187-4.711zM53 36.74c.012.433-.242.831-.64 1-.391.171-.762.382-1.11.632l-7 7.86A5.005 5.005 0 0 0 43 49.52v2.652c0 .266-.102.52-.29.707l-.6.601-1.712-2.28A2.999 2.999 0 0 0 38 50H26c-.945 0-1.832.445-2.398 1.2l-1.711 2.28-.602-.601a.996.996 0 0 1-.289-.707V49.52c0-1.223-.45-2.407-1.262-3.32l-7-7.86a6.373 6.373 0 0 0-1.18-.668 1.012 1.012 0 0 1-.57-.934V25.262a1.012 1.012 0 0 1 .57-.934 2.994 2.994 0 0 0 1.602-2.09l.57-2.84 1.711 10.512c.032.14.075.277.13.41a1.181 1.181 0 0 0-.122.121l-1 1.43a3.002 3.002 0 0 0 .7 4.059L16.62 37a5 5 0 0 0 3 1h5.43a3.001 3.001 0 0 0 2.68-1.66L29 33.87c1 .059 2 .09 3 .09.781 0 1.559 0 2.34-.063l1.219 2.43A2.996 2.996 0 0 0 38.239 38h5.433a5.016 5.016 0 0 0 3-1l1.418-1.059a3.004 3.004 0 0 0 .7-4.062l-.65-1c.212-.297.36-.64.43-1l1.7-10.5.57 2.84c.183.906.773 1.68 1.601 2.09.356.171.579.535.57.93z"/><path d="M31 19h2c.55 0 1-.45 1-1s-.45-1-1-1h-2c-.55 0-1 .45-1 1s.45 1 1 1zM31 14h2c.55 0 1-.45 1-1s-.45-1-1-1h-2c-.55 0-1 .45-1 1s.45 1 1 1zM31 9h2c.55 0 1-.45 1-1s-.45-1-1-1h-2c-.55 0-1 .45-1 1s.45 1 1 1zM32 56c-.55 0-1 .45-1 1v2c0 .55.45 1 1 1s1-.45 1-1v-2c0-.55-.45-1-1-1zM37 56c-.55 0-1 .45-1 1v2c0 .55.45 1 1 1s1-.45 1-1v-2c0-.55-.45-1-1-1zM27 56c-.55 0-1 .45-1 1v2c0 .55.45 1 1 1s1-.45 1-1v-2c0-.55-.45-1-1-1z"/></svg>